<svg width="78" height="80" viewBox="0 0 78 80" fill="none" xmlns="http://www.w3.org/2000/svg">
<path d="M34.4626 38.1567V11.1334C34.4625 10.6447 34.2743 10.1762 33.9394 9.83066L29.2418 4.98404C28.907 4.6386 28.453 4.44446 27.9796 4.44434H1.78585C1.31225 4.44441 0.858071 4.63854 0.523186 4.98405C0.1883 5.32955 0.000131622 5.79813 6.10352e-05 6.28675L6.10352e-05 33.3109C5.95945e-05 33.5529 0.0462562 33.7925 0.136013 34.0161C0.22577 34.2397 0.35733 34.4428 0.52318 34.6139L5.22087 39.4603C5.38666 39.6314 5.58351 39.7671 5.80016 39.8597C6.01682 39.9523 6.24903 40 6.48354 40H32.6765C33.1501 39.9999 33.6043 39.8058 33.9392 39.4603C34.2741 39.1148 34.4622 38.6462 34.4623 38.1576" fill="white"/>
<path d="M73.2334 33.7124V6.68903C73.2333 6.20041 73.0452 5.73182 72.7103 5.38633L68.0126 0.539704C67.6779 0.19426 67.2239 0.000125004 66.7504 0L40.5567 0C40.0831 7.28244e-05 39.6289 0.194207 39.294 0.53971C38.9591 0.885213 38.7709 1.35379 38.7709 1.84241V28.8666C38.7709 29.1086 38.8171 29.3482 38.9068 29.5718C38.9966 29.7953 39.1281 29.9985 39.294 30.1696L43.9917 35.0159C44.1575 35.1871 44.3543 35.3228 44.571 35.4154C44.7876 35.508 45.0198 35.5557 45.2544 35.5556H71.4473C71.9209 35.5556 72.3751 35.3614 72.71 35.0159C73.0449 34.6704 73.233 34.2019 73.2331 33.7132" fill="white"/>
<path d="M38.7713 78.1563V51.1329C38.7712 50.6443 38.5831 50.1757 38.2482 49.8302L33.5505 44.9836C33.2158 44.6381 32.7618 44.444 32.2883 44.4438H6.09457C5.62097 44.4439 5.16679 44.6381 4.8319 44.9836C4.49702 45.3291 4.30885 45.7976 4.30878 46.2863V73.3105C4.30878 73.5524 4.35497 73.7921 4.44473 74.0156C4.53449 74.2392 4.66605 74.4423 4.8319 74.6134L9.52958 79.4598C9.69538 79.6309 9.89222 79.7666 10.1089 79.8592C10.3255 79.9518 10.5577 79.9995 10.7923 79.9995H36.9852C37.4588 79.9994 37.913 79.8053 38.2479 79.4598C38.5828 79.1143 38.7709 78.6457 38.771 78.1571" fill="white"/>
<path d="M77.5402 73.7119V46.6885C77.5402 46.1999 77.352 45.7313 77.0171 45.3858L72.3194 40.5392C71.9847 40.1938 71.5307 39.9996 71.0572 39.9995H44.8635C44.3899 39.9996 43.9357 40.1937 43.6008 40.5392C43.2659 40.8847 43.0778 41.3533 43.0777 41.8419V68.8661C43.0777 69.1081 43.1239 69.3477 43.2137 69.5713C43.3034 69.7949 43.435 69.998 43.6008 70.1691L48.2985 75.0155C48.4643 75.1866 48.6611 75.3223 48.8778 75.4149C49.0945 75.5075 49.3267 75.5552 49.5612 75.5552H75.7541C76.2277 75.5551 76.6819 75.361 77.0168 75.0154C77.3517 74.6699 77.5399 74.2014 77.5399 73.7127" fill="white"/>
</svg>
